<?xml version="1.0" standalone="no"?>
<!DOCTYPE svg PUBLIC "-//W3C//DTD SVG 20010904//EN"
 "http://www.w3.org/TR/2001/REC-SVG-20010904/DTD/svg10.dtd">
<svg version="1.0" xmlns="http://www.w3.org/2000/svg"
 width="256.000000pt" height="256.000000pt" viewBox="0 0 256.000000 256.000000"
 preserveAspectRatio="xMidYMid meet">

<g transform="translate(0.000000,256.000000) scale(0.100000,-0.100000)"
fill="#000000" stroke="none">
<path d="M874 2017 c-3 -8 -4 -54 -2 -103 2 -71 6 -89 18 -89 12 0 16 19 18
103 2 87 0 102 -13 102 -9 0 -18 -6 -21 -13z"/>
<path d="M1615 2018 c-3 -8 -5 -55 -3 -104 2 -71 6 -89 18 -89 12 0 15 18 15
99 0 71 -4 101 -12 103 -7 3 -15 -2 -18 -9z"/>
<path d="M645 1935 c-73 -26 -105 -82 -105 -186 l0 -49 741 0 742 0 -5 69 c-6
81 -29 126 -78 156 -29 16 -57 21 -157 24 l-123 3 0 -35 c0 -20 5 -39 10 -42
14 -9 13 -48 -2 -63 -15 -15 -61 -15 -76 0 -15 15 -16 54 -2 63 6 3 10 22 10
41 l0 34 -337 -2 -338 -3 -3 -29 c-2 -16 1 -33 7 -39 15 -15 14 -50 -1 -65 -7
-7 -25 -12 -40 -12 -36 0 -56 36 -39 68 6 11 11 34 11 51 l0 31 -87 0 c-49 -1
-106 -7 -128 -15z"/>
<path d="M542 1157 l3 -524 28 -36 c54 -71 17 -68 716 -65 622 3 630 3 658 24
15 12 37 36 48 55 19 33 20 55 23 552 l3 517 -741 0 -741 0 3 -523z m476 23
c4 -161 -3 -204 -37 -242 -32 -36 -108 -51 -130 -25 -19 23 -5 37 38 37 67 0
74 17 79 201 5 156 5 160 26 157 20 -3 21 -9 24 -128z m136 114 c3 -9 6 -74 6
-145 0 -146 10 -180 59 -197 40 -14 80 -2 105 32 18 24 22 46 26 174 5 139 6
147 25 147 19 0 20 -8 23 -145 2 -159 -6 -194 -58 -232 -38 -28 -117 -33 -160
-11 -58 31 -72 67 -78 212 -2 71 -2 140 2 155 7 29 40 36 50 10z m388 -161 l3
-178 85 -5 c67 -4 85 -8 85 -20 0 -12 -19 -15 -110 -15 l-110 0 -3 185 c-1
101 0 190 2 197 3 7 14 13 25 13 20 0 21 -7 23 -177z"/>
</g>
</svg>
